<svg width="600" height="600" xmlns="http://www.w3.org/2000/svg">
<circle cx="300" cy="150" r="150" stroke="black" stroke-width="2" fill="none" />
<circle cx="450" cy="360" r="210" stroke="orange" stroke-width="2" fill="none" />
<circle cx="498" cy="525" r="5" fill="blue" />
<circle cx="144" cy="377" r="5" fill="purple" />
<circle cx="373" cy="138" r="5" fill="red" />
<circle cx="44" cy="473" r="5" fill="purple" />
<circle cx="385" cy="514" r="5" fill="blue" />
<circle cx="525" cy="529" r="5" fill="blue" />
<circle cx="188" cy="394" r="5" fill="purple" />
<circle cx="105" cy="341" r="5" fill="purple" />
<circle cx="380" cy="462" r="5" fill="blue" />
<circle cx="401" cy="292" r="5" fill="blue" />
<circle cx="97" cy="365" r="5" fill="purple" />
<circle cx="83" cy="145" r="5" fill="purple" />
<circle cx="393" cy="137" r="5" fill="red" />
<circle cx="456" cy="457" r="5" fill="blue" />
<circle cx="534" cy="169" r="5" fill="blue" />
<circle cx="280" cy="328" r="5" fill="blue" />
<circle cx="595" cy="554" r="5" fill="purple" />
<circle cx="496" cy="551" r="5" fill="blue" />
<circle cx="105" cy="490" r="5" fill="purple" />
<circle cx="577" cy="539" r="5" fill="purple" />
<circle cx="253" cy="572" r="5" fill="purple" />
<circle cx="492" cy="531" r="5" fill="blue" />
<circle cx="461" cy="540" r="5" fill="blue" />
<circle cx="271" cy="190" r="5" fill="red" />
<circle cx="513" cy="450" r="5" fill="blue" />
<circle cx="254" cy="11" r="5" fill="red" />
<circle cx="486" cy="597" r="5" fill="purple" />
<circle cx="270" cy="206" r="5" fill="red" />
<circle cx="219" cy="386" r="5" fill="purple" />
<circle cx="427" cy="128" r="5" fill="red" />
<circle cx="31" cy="370" r="5" fill="purple" />
<circle cx="111" cy="417" r="5" fill="purple" />
<circle cx="460" cy="189" r="5" fill="blue" />
<circle cx="396" cy="477" r="5" fill="blue" />
<circle cx="159" cy="163" r="5" fill="red" />
<circle cx="148" cy="256" r="5" fill="purple" />
<circle cx="236" cy="445" r="5" fill="purple" />
<circle cx="561" cy="276" r="5" fill="blue" />
<circle cx="435" cy="265" r="5" fill="blue" />
<circle cx="197" cy="113" r="5" fill="red" />
<circle cx="252" cy="19" r="5" fill="red" />
<circle cx="452" cy="386" r="5" fill="blue" />
<circle cx="572" cy="73" r="5" fill="purple" />
<circle cx="20" cy="251" r="5" fill="purple" />
<circle cx="504" cy="458" r="5" fill="blue" />
<circle cx="448" cy="538" r="5" fill="blue" />
<circle cx="348" cy="54" r="5" fill="red" />
<circle cx="254" cy="95" r="5" fill="red" />
<circle cx="394" cy="577" r="5" fill="purple" />
<circle cx="453" cy="540" r="5" fill="blue" />
</svg>