<svg width="500" height="500" xmlns="http://www.w3.org/2000/svg">

<rect width="500" height="500" style="fill:rgb(255,255,255)" />

<circle cx="343" cy="342" r="10" fill="#E06E4453" />

<circle cx="336" cy="240" r="10" fill="#E06E4453" />

<circle cx="325" cy="273" r="10" fill="#E06E4453" />

<circle cx="283" cy="213" r="10" fill="#E06E4453" />

<circle cx="285" cy="264" r="10" fill="#E06E4453" />

<circle cx="339" cy="198" r="10" fill="#E06E4453" />

<circle cx="212" cy="266" r="10" fill="#E06E4453" />

<circle cx="317" cy="236" r="10" fill="#E06E4453" />

<circle cx="277" cy="276" r="10" fill="#E06E4453" />

<circle cx="231" cy="338" r="10" fill="#E06E4453" />

<circle cx="163" cy="173" r="10" fill="#E06E4453" />

<circle cx="348" cy="168" r="10" fill="#E06E4453" />

<circle cx="223" cy="239" r="10" fill="#E06E4453" />

<circle cx="248" cy="165" r="10" fill="#E06E4453" />

<circle cx="263" cy="225" r="10" fill="#E06E4453" />

<circle cx="170" cy="189" r="10" fill="#E06E4453" />

<circle cx="174" cy="250" r="10" fill="#E06E4453" />

<circle cx="195" cy="330" r="10" fill="#E06E4453" />

<circle cx="217" cy="296" r="10" fill="#E06E4453" />

<circle cx="152" cy="275" r="10" fill="#E06E4453" />

<circle cx="268" cy="181" r="10" fill="#E06E4453" />

<circle cx="238" cy="293" r="10" fill="#E06E4453" />

<circle cx="158" cy="308" r="10" fill="#E06E4453" />

<circle cx="259" cy="339" r="10" fill="#E06E4453" />

<circle cx="282" cy="218" r="10" fill="#E06E4453" />

<circle cx="321" cy="310" r="10" fill="#E06E4453" />

<circle cx="297" cy="160" r="10" fill="#E06E4453" />

<circle cx="197" cy="310" r="10" fill="#E06E4453" />

<circle cx="223" cy="228" r="10" fill="#E06E4453" />

<circle cx="316" cy="174" r="10" fill="#E06E4453" />

<circle cx="252" cy="228" r="10" fill="#E06E4453" />

<circle cx="331" cy="331" r="10" fill="#E64F648C" />

<circle cx="269" cy="161" r="10" fill="#E64F648C" />

<circle cx="194" cy="153" r="10" fill="#E64F648C" />

<circle cx="269" cy="260" r="10" fill="#E64F648C" />

<circle cx="191" cy="219" r="10" fill="#E64F648C" />

<circle cx="233" cy="339" r="10" fill="#E64F648C" />

<circle cx="187" cy="294" r="10" fill="#E64F648C" />

<circle cx="227" cy="203" r="10" fill="#E64F648C" />

<circle cx="346" cy="261" r="10" fill="#E64F648C" />

<circle cx="173" cy="237" r="10" fill="#E64F648C" />

<circle cx="165" cy="211" r="10" fill="#E64F648C" />

<circle cx="184" cy="192" r="10" fill="#E64F648C" />

<circle cx="344" cy="231" r="10" fill="#E64F648C" />

<circle cx="171" cy="179" r="10" fill="#E64F648C" />

<circle cx="313" cy="234" r="10" fill="#E64F648C" />

<circle cx="175" cy="245" r="10" fill="#E64F648C" />

<circle cx="294" cy="335" r="10" fill="#E64F648C" />

<circle cx="286" cy="188" r="10" fill="#E64F648C" />

<circle cx="312" cy="215" r="10" fill="#E64F648C" />

<circle cx="318" cy="330" r="10" fill="#E64F648C" />

<circle cx="192" cy="202" r="10" fill="#E64F648C" />

<circle cx="198" cy="284" r="10" fill="#E64F648C" />

<circle cx="233" cy="165" r="10" fill="#E64F648C" />

<circle cx="239" cy="308" r="10" fill="#E64F648C" />

<circle cx="265" cy="195" r="10" fill="#E64F648C" />

<circle cx="274" cy="158" r="10" fill="#E64F648C" />

<circle cx="288" cy="164" r="10" fill="#E64F648C" />

<circle cx="279" cy="271" r="10" fill="#3F4AD5AD" />

<circle cx="271" cy="175" r="10" fill="#3F4AD5AD" />

<circle cx="308" cy="220" r="10" fill="#3F4AD5AD" />

<circle cx="170" cy="297" r="10" fill="#3F4AD5AD" />

<circle cx="327" cy="282" r="10" fill="#3F4AD5AD" />

<circle cx="195" cy="243" r="10" fill="#3F4AD5AD" />

<circle cx="323" cy="296" r="10" fill="#3F4AD5AD" />

<circle cx="225" cy="282" r="10" fill="#3F4AD5AD" />

<circle cx="301" cy="218" r="10" fill="#3F4AD5AD" />

<circle cx="177" cy="216" r="10" fill="#3F4AD5AD" />

<circle cx="219" cy="243" r="10" fill="#3F4AD5AD" />

<circle cx="168" cy="332" r="10" fill="#3F4AD5AD" />

<circle cx="266" cy="249" r="10" fill="#3F4AD5AD" />

<circle cx="315" cy="336" r="10" fill="#3F4AD5AD" />

<circle cx="231" cy="340" r="10" fill="#3F4AD5AD" />

<circle cx="257" cy="312" r="10" fill="#3F4AD5AD" />

<circle cx="324" cy="257" r="10" fill="#3F4AD5AD" />

<circle cx="205" cy="188" r="10" fill="#3F4AD5AD" />

<circle cx="188" cy="214" r="10" fill="#3F4AD5AD" />

<circle cx="328" cy="180" r="10" fill="#3F4AD5AD" />

<circle cx="279" cy="350" r="10" fill="#3F4AD5AD" />

<circle cx="175" cy="173" r="10" fill="#3F4AD5AD" />

<circle cx="269" cy="185" r="10" fill="#3F4AD5AD" />

<circle cx="294" cy="331" r="10" fill="#3F4AD5AD" />

<circle cx="288" cy="299" r="10" fill="#3F4AD5AD" />

<circle cx="192" cy="162" r="10" fill="#3F4AD5AD" />

<circle cx="183" cy="169" r="10" fill="#3F4AD5AD" />

<circle cx="296" cy="301" r="10" fill="#3F4AD5AD" />

<circle cx="178" cy="317" r="10" fill="#3F4AD5AD" />

<circle cx="189" cy="167" r="10" fill="#3F4AD5AD" />

<circle cx="313" cy="219" r="10" fill="#3F4AD5AD" />

<circle cx="275" cy="314" r="10" fill="#3F4AD5AD" />

<circle cx="259" cy="290" r="10" fill="#3F4AD5AD" />

<circle cx="182" cy="255" r="10" fill="#3F4AD5AD" />

<circle cx="329" cy="162" r="10" fill="#68B055B1" />

<circle cx="226" cy="246" r="10" fill="#68B055B1" />

<circle cx="316" cy="343" r="10" fill="#68B055B1" />

<circle cx="323" cy="318" r="10" fill="#68B055B1" />

<circle cx="166" cy="313" r="10" fill="#68B055B1" />

<circle cx="236" cy="308" r="10" fill="#68B055B1" />

<circle cx="201" cy="270" r="10" fill="#68B055B1" />

<circle cx="302" cy="171" r="10" fill="#68B055B1" />

<circle cx="316" cy="309" r="10" fill="#68B055B1" />

<circle cx="259" cy="192" r="10" fill="#68B055B1" />

<circle cx="199" cy="336" r="10" fill="#68B055B1" />

<circle cx="161" cy="188" r="10" fill="#68B055B1" />

<circle cx="182" cy="288" r="10" fill="#68B055B1" />

<circle cx="188" cy="158" r="10" fill="#68B055B1" />

<circle cx="151" cy="310" r="10" fill="#68B055B1" />

<circle cx="346" cy="311" r="10" fill="#68B055B1" />

<circle cx="244" cy="200" r="10" fill="#68B055B1" />

<circle cx="273" cy="230" r="10" fill="#68B055B1" />

<circle cx="311" cy="191" r="10" fill="#68B055B1" />

<circle cx="255" cy="179" r="10" fill="#68B055B1" />

<circle cx="211" cy="294" r="10" fill="#68B055B1" />

<circle cx="208" cy="313" r="10" fill="#68B055B1" />

<circle cx="283" cy="215" r="10" fill="#68B055B1" />

<circle cx="236" cy="279" r="10" fill="#EBC882F8" />

<circle cx="205" cy="252" r="10" fill="#EBC882F8" />

<circle cx="306" cy="220" r="10" fill="#EBC882F8" />

<circle cx="260" cy="261" r="10" fill="#EBC882F8" />

<circle cx="231" cy="235" r="10" fill="#EBC882F8" />

<circle cx="334" cy="199" r="10" fill="#EBC882F8" />

<circle cx="200" cy="305" r="10" fill="#EBC882F8" />

<circle cx="209" cy="162" r="10" fill="#EBC882F8" />

<circle cx="306" cy="168" r="10" fill="#EBC882F8" />

<circle cx="172" cy="223" r="10" fill="#EBC882F8" />

<circle cx="209" cy="221" r="10" fill="#EBC882F8" />

<circle cx="153" cy="205" r="10" fill="#EBC882F8" />

<circle cx="254" cy="296" r="10" fill="#EBC882F8" />

<circle cx="150" cy="326" r="10" fill="#EBC882F8" />

<circle cx="179" cy="302" r="10" fill="#EBC882F8" />

<circle cx="273" cy="340" r="10" fill="#EBC882F8" />

<circle cx="258" cy="293" r="10" fill="#EBC882F8" />

<circle cx="246" cy="326" r="10" fill="#EBC882F8" />

<circle cx="310" cy="275" r="10" fill="#EBC882F8" />

<circle cx="194" cy="316" r="10" fill="#EBC882F8" />

<circle cx="159" cy="342" r="10" fill="#EBC882F8" />

<circle cx="165" cy="237" r="10" fill="#EBC882F8" />

<circle cx="219" cy="272" r="10" fill="#EBC882F8" />

<circle cx="310" cy="213" r="10" fill="#EBC882F8" />

<circle cx="322" cy="265" r="10" fill="#EBC882F8" />

<circle cx="165" cy="163" r="10" fill="#EBC882F8" />

<circle cx="279" cy="295" r="10" fill="#EBC882F8" />

<circle cx="231" cy="221" r="10" fill="#EBC882F8" />

<circle cx="345" cy="235" r="10" fill="#EBC882F8" />

<circle cx="209" cy="228" r="10" fill="#EBC882F8" />

<circle cx="297" cy="311" r="10" fill="#EBC882F8" />

<circle cx="184" cy="344" r="10" fill="#EBC882F8" />

<circle cx="230" cy="264" r="10" fill="#EBC882F8" />

<circle cx="167" cy="281" r="10" fill="#EBC882F8" />

<circle cx="317" cy="189" r="10" fill="#EBC882F8" />

<circle cx="173" cy="298" r="10" fill="#EBC882F8" />

<circle cx="184" cy="198" r="10" fill="#EBC882F8" />

<circle cx="189" cy="266" r="10" fill="#EBC882F8" />

<circle cx="320" cy="299" r="10" fill="#EBC882F8" />

<circle cx="153" cy="280" r="10" fill="#EBC882F8" />

<circle cx="311" cy="262" r="10" fill="#EBC882F8" />

<circle cx="267" cy="171" r="10" fill="#EBC882F8" />

<circle cx="208" cy="268" r="10" fill="#EBC882F8" />

<circle cx="304" cy="184" r="10" fill="#EBC882F8" />

<circle cx="257" cy="239" r="10" fill="#EBC882F8" />

<circle cx="260" cy="301" r="10" fill="#EBC882F8" />

<circle cx="188" cy="225" r="10" fill="#EBC882F8" />

<circle cx="207" cy="254" r="10" fill="#EBC882F8" />

<circle cx="183" cy="282" r="10" fill="#EBC882F8" />

<circle cx="166" cy="221" r="10" fill="#EBC882F8" />

<circle cx="155" cy="210" r="10" fill="#1379D1F2" />

<circle cx="304" cy="332" r="10" fill="#1379D1F2" />

<circle cx="192" cy="175" r="10" fill="#1379D1F2" />

<circle cx="330" cy="227" r="10" fill="#1379D1F2" />

<circle cx="209" cy="257" r="10" fill="#1379D1F2" />

<circle cx="262" cy="245" r="10" fill="#1379D1F2" />

<circle cx="203" cy="213" r="10" fill="#1379D1F2" />

<circle cx="172" cy="246" r="10" fill="#1379D1F2" />

<circle cx="275" cy="187" r="10" fill="#1379D1F2" />

<circle cx="297" cy="235" r="10" fill="#1379D1F2" />

<circle cx="263" cy="159" r="10" fill="#1379D1F2" />

<circle cx="154" cy="219" r="10" fill="#1379D1F2" />

<circle cx="246" cy="228" r="10" fill="#1379D1F2" />

<circle cx="276" cy="329" r="10" fill="#1379D1F2" />

<circle cx="219" cy="173" r="10" fill="#1379D1F2" />

<circle cx="245" cy="307" r="10" fill="#1379D1F2" />

<circle cx="315" cy="178" r="10" fill="#1379D1F2" />

<circle cx="303" cy="243" r="10" fill="#1379D1F2" />

<circle cx="315" cy="201" r="10" fill="#1379D1F2" />

<circle cx="329" cy="323" r="10" fill="#1379D1F2" />

<circle cx="192" cy="263" r="10" fill="#1379D1F2" />

<circle cx="284" cy="170" r="10" fill="#1379D1F2" />

<circle cx="242" cy="230" r="10" fill="#1379D1F2" />

<circle cx="233" cy="169" r="10" fill="#1379D1F2" />

<circle cx="312" cy="247" r="10" fill="#1379D1F2" />

<circle cx="339" cy="168" r="10" fill="#B2ECB242" />

<circle cx="302" cy="199" r="10" fill="#B2ECB242" />

<circle cx="168" cy="297" r="10" fill="#B2ECB242" />

<circle cx="175" cy="170" r="10" fill="#B2ECB242" />

<circle cx="176" cy="204" r="10" fill="#B2ECB242" />

<circle cx="242" cy="239" r="10" fill="#B2ECB242" />

<circle cx="242" cy="167" r="10" fill="#B2ECB242" />

<circle cx="203" cy="233" r="10" fill="#B2ECB242" />

<circle cx="160" cy="318" r="10" fill="#B2ECB242" />

<circle cx="236" cy="343" r="10" fill="#B2ECB242" />

<circle cx="201" cy="317" r="10" fill="#B2ECB242" />

<circle cx="237" cy="317" r="10" fill="#B2ECB242" />

<circle cx="336" cy="166" r="10" fill="#B2ECB242" />

<circle cx="269" cy="274" r="10" fill="#B2ECB242" />

<circle cx="153" cy="207" r="10" fill="#B2ECB242" />

<circle cx="153" cy="234" r="10" fill="#B2ECB242" />

<circle cx="151" cy="155" r="10" fill="#B2ECB242" />

<circle cx="178" cy="153" r="10" fill="#B2ECB242" />

<circle cx="322" cy="201" r="10" fill="#B2ECB242" />

<circle cx="251" cy="341" r="10" fill="#B2ECB242" />

<circle cx="158" cy="333" r="10" fill="#B2ECB242" />

<circle cx="296" cy="240" r="10" fill="#B2ECB242" />

<circle cx="254" cy="248" r="10" fill="#B2ECB242" />

<circle cx="194" cy="299" r="10" fill="#B2ECB242" />

<circle cx="302" cy="199" r="10" fill="#B2ECB242" />

<circle cx="212" cy="222" r="10" fill="#B2ECB242" />

<circle cx="159" cy="275" r="10" fill="#B2ECB242" />

<circle cx="156" cy="310" r="10" fill="#B2ECB242" />

<circle cx="152" cy="181" r="10" fill="#B2ECB242" />

</svg>
